# xmcd CD database file
#
# Track frame offsets:
#	150
#	17467
#	40050
#	61662
#	80162
#	98777
#	121230
#	136370
#	151287
#	168245
#	189000
#
# Disc length: 2933 seconds
#
# Revision: 0
# Processed by: cddbd v1.5.1PL0 Copyright (c) Steve Scherf et al.
# Submitted via: CDex 1.60beta1
#
DISCID=7a0b730b
DTITLE=和田アキ子 - (株) ワダアキコ Wada Akiko Corporation
DYEAR=2003
DGENRE=Blues
TTITLE0=ボーイ・アンド・ガール2003
TTITLE1=悩み無用! (Readymade Mix)
TTITLE2=あの鐘を鳴らすのはあなた
TTITLE3=どしゃぶりの雨の中で
TTITLE4=笑って許して
TTITLE5=星空の孤独
TTITLE6=古い日記
TTITLE7=夏の夜のサンバ
TTITLE8=コーラス・ガール
TTITLE9=だってしょうがないじゃない
TTITLE10=抱擁
EXTD=YEAR: 2003
EXTT0=
EXTT1=
EXTT2=
EXTT3=
EXTT4=
EXTT5=
EXTT6=
EXTT7=
EXTT8=
EXTT9=
EXTT10=
PLAYORDER=
